<mxfile host="app.diagrams.net" modified="2024-01-11T00:59:32.154Z" agent="Mozilla/5.0 (Windows NT 10.0; Win64; x64) AppleWebKit/537.36 (KHTML, like Gecko) Chrome/120.0.0.0 Safari/537.36 Edg/120.0.0.0" etag="j-xdhcYrixXDP--rnnnF" version="22.1.16" type="github">
  <diagram id="PRNWCiQJ7i_xLe6h2Mz9" name="第 1 页">
    <mxGraphModel dx="1143" dy="825" grid="1" gridSize="10" guides="1" tooltips="1" connect="1" arrows="1" fold="1" page="1" pageScale="1" pageWidth="827" pageHeight="1169" math="0" shadow="0">
      <root>
        <mxCell id="0" />
        <mxCell id="1" parent="0" />
        <mxCell id="cR9ggvPWRlXBbMYqaPip-1" value="代码版本管理流程" style="swimlane;childLayout=stackLayout;resizeParent=1;resizeParentMax=0;startSize=20;html=1;" parent="1" vertex="1">
          <mxGeometry x="10" y="110" width="670" height="610" as="geometry" />
        </mxCell>
        <mxCell id="cR9ggvPWRlXBbMYqaPip-2" value="master" style="swimlane;startSize=20;html=1;" parent="cR9ggvPWRlXBbMYqaPip-1" vertex="1">
          <mxGeometry y="20" width="160" height="590" as="geometry">
            <mxRectangle y="20" width="40" height="590" as="alternateBounds" />
          </mxGeometry>
        </mxCell>
        <mxCell id="1TMqcCTL8lDgmQgiUETs-2" value="tag (v1.0.0)" style="strokeWidth=2;html=1;shape=mxgraph.flowchart.terminator;whiteSpace=wrap;" vertex="1" parent="cR9ggvPWRlXBbMYqaPip-2">
          <mxGeometry x="30" y="150" width="100" height="40" as="geometry" />
        </mxCell>
        <mxCell id="1TMqcCTL8lDgmQgiUETs-16" value="tag (v1.1.0)" style="strokeWidth=2;html=1;shape=mxgraph.flowchart.terminator;whiteSpace=wrap;" vertex="1" parent="cR9ggvPWRlXBbMYqaPip-2">
          <mxGeometry x="30" y="400" width="100" height="40" as="geometry" />
        </mxCell>
        <mxCell id="1TMqcCTL8lDgmQgiUETs-15" value="tag (v1.0.1)" style="strokeWidth=2;html=1;shape=mxgraph.flowchart.terminator;whiteSpace=wrap;" vertex="1" parent="cR9ggvPWRlXBbMYqaPip-2">
          <mxGeometry x="30" y="280" width="100" height="40" as="geometry" />
        </mxCell>
        <mxCell id="cR9ggvPWRlXBbMYqaPip-3" value="hotfix" style="swimlane;startSize=20;html=1;" parent="cR9ggvPWRlXBbMYqaPip-1" vertex="1">
          <mxGeometry x="160" y="20" width="160" height="590" as="geometry" />
        </mxCell>
        <mxCell id="1TMqcCTL8lDgmQgiUETs-18" value="v1.0.1" style="rounded=0;whiteSpace=wrap;html=1;" vertex="1" parent="cR9ggvPWRlXBbMYqaPip-3">
          <mxGeometry x="20" y="230" width="120" height="40" as="geometry" />
        </mxCell>
        <mxCell id="cR9ggvPWRlXBbMYqaPip-4" value="test" style="swimlane;startSize=20;html=1;" parent="cR9ggvPWRlXBbMYqaPip-1" vertex="1">
          <mxGeometry x="320" y="20" width="160" height="590" as="geometry" />
        </mxCell>
        <mxCell id="1TMqcCTL8lDgmQgiUETs-4" value="v1.1.0" style="rounded=0;whiteSpace=wrap;html=1;" vertex="1" parent="cR9ggvPWRlXBbMYqaPip-4">
          <mxGeometry x="20" y="70" width="120" height="200" as="geometry" />
        </mxCell>
        <mxCell id="cR9ggvPWRlXBbMYqaPip-5" value="task/bugfix" style="swimlane;startSize=20;html=1;" parent="cR9ggvPWRlXBbMYqaPip-1" vertex="1">
          <mxGeometry x="480" y="20" width="190" height="590" as="geometry" />
        </mxCell>
        <mxCell id="1TMqcCTL8lDgmQgiUETs-8" value="taskA" style="rounded=0;whiteSpace=wrap;html=1;" vertex="1" parent="cR9ggvPWRlXBbMYqaPip-5">
          <mxGeometry x="35" y="100" width="120" height="40" as="geometry" />
        </mxCell>
        <mxCell id="1TMqcCTL8lDgmQgiUETs-9" value="bugA" style="rounded=0;whiteSpace=wrap;html=1;" vertex="1" parent="cR9ggvPWRlXBbMYqaPip-5">
          <mxGeometry x="35" y="210" width="120" height="40" as="geometry" />
        </mxCell>
        <mxCell id="1TMqcCTL8lDgmQgiUETs-6" style="edgeStyle=orthogonalEdgeStyle;rounded=0;orthogonalLoop=1;jettySize=auto;html=1;exitX=1;exitY=0.5;exitDx=0;exitDy=0;exitPerimeter=0;entryX=0;entryY=0.5;entryDx=0;entryDy=0;" edge="1" parent="cR9ggvPWRlXBbMYqaPip-1" source="1TMqcCTL8lDgmQgiUETs-2" target="1TMqcCTL8lDgmQgiUETs-4">
          <mxGeometry relative="1" as="geometry" />
        </mxCell>
        <mxCell id="1TMqcCTL8lDgmQgiUETs-10" style="edgeStyle=orthogonalEdgeStyle;rounded=0;orthogonalLoop=1;jettySize=auto;html=1;exitX=1;exitY=0.25;exitDx=0;exitDy=0;" edge="1" parent="cR9ggvPWRlXBbMYqaPip-1" source="1TMqcCTL8lDgmQgiUETs-4" target="1TMqcCTL8lDgmQgiUETs-8">
          <mxGeometry relative="1" as="geometry" />
        </mxCell>
        <mxCell id="1TMqcCTL8lDgmQgiUETs-12" style="edgeStyle=orthogonalEdgeStyle;rounded=0;orthogonalLoop=1;jettySize=auto;html=1;exitX=0;exitY=0.75;exitDx=0;exitDy=0;" edge="1" parent="cR9ggvPWRlXBbMYqaPip-1" source="1TMqcCTL8lDgmQgiUETs-8">
          <mxGeometry relative="1" as="geometry">
            <mxPoint x="460" y="150" as="targetPoint" />
          </mxGeometry>
        </mxCell>
        <mxCell id="1TMqcCTL8lDgmQgiUETs-13" style="edgeStyle=orthogonalEdgeStyle;rounded=0;orthogonalLoop=1;jettySize=auto;html=1;exitX=1;exitY=0.75;exitDx=0;exitDy=0;entryX=0;entryY=0.25;entryDx=0;entryDy=0;" edge="1" parent="cR9ggvPWRlXBbMYqaPip-1" source="1TMqcCTL8lDgmQgiUETs-4" target="1TMqcCTL8lDgmQgiUETs-9">
          <mxGeometry relative="1" as="geometry" />
        </mxCell>
        <mxCell id="1TMqcCTL8lDgmQgiUETs-14" style="edgeStyle=orthogonalEdgeStyle;rounded=0;orthogonalLoop=1;jettySize=auto;html=1;exitX=0;exitY=0.75;exitDx=0;exitDy=0;entryX=1.017;entryY=0.85;entryDx=0;entryDy=0;entryPerimeter=0;" edge="1" parent="cR9ggvPWRlXBbMYqaPip-1" source="1TMqcCTL8lDgmQgiUETs-9" target="1TMqcCTL8lDgmQgiUETs-4">
          <mxGeometry relative="1" as="geometry" />
        </mxCell>
        <mxCell id="1TMqcCTL8lDgmQgiUETs-17" style="edgeStyle=orthogonalEdgeStyle;rounded=0;orthogonalLoop=1;jettySize=auto;html=1;exitX=0.5;exitY=1;exitDx=0;exitDy=0;entryX=1;entryY=0.5;entryDx=0;entryDy=0;entryPerimeter=0;" edge="1" parent="cR9ggvPWRlXBbMYqaPip-1" source="1TMqcCTL8lDgmQgiUETs-4" target="1TMqcCTL8lDgmQgiUETs-16">
          <mxGeometry relative="1" as="geometry" />
        </mxCell>
        <mxCell id="1TMqcCTL8lDgmQgiUETs-19" style="edgeStyle=orthogonalEdgeStyle;rounded=0;orthogonalLoop=1;jettySize=auto;html=1;exitX=0.5;exitY=1;exitDx=0;exitDy=0;exitPerimeter=0;" edge="1" parent="cR9ggvPWRlXBbMYqaPip-1" source="1TMqcCTL8lDgmQgiUETs-2" target="1TMqcCTL8lDgmQgiUETs-18">
          <mxGeometry relative="1" as="geometry" />
        </mxCell>
        <mxCell id="1TMqcCTL8lDgmQgiUETs-20" style="edgeStyle=orthogonalEdgeStyle;rounded=0;orthogonalLoop=1;jettySize=auto;html=1;exitX=0.5;exitY=1;exitDx=0;exitDy=0;entryX=1;entryY=0.5;entryDx=0;entryDy=0;entryPerimeter=0;" edge="1" parent="cR9ggvPWRlXBbMYqaPip-1" source="1TMqcCTL8lDgmQgiUETs-18" target="1TMqcCTL8lDgmQgiUETs-15">
          <mxGeometry relative="1" as="geometry" />
        </mxCell>
      </root>
    </mxGraphModel>
  </diagram>
</mxfile>
